<svg width="120" height="120" viewBox="0 0 120 120" fill="none" xmlns="http://www.w3.org/2000/svg">
  <rect width="120" height="120" rx="60" fill="#EEF2FF"/>
  <circle cx="60" cy="46" r="22" fill="#3B82F6" fill-opacity="0.15"/>
  <path d="M60 26c-11.046 0-20 8.954-20 20 0 11.045 8.954 20 20 20s20-8.955 20-20c0-11.046-8.954-20-20-20Zm0 8c3.866 0 7 3.134 7 7s-3.134 7-7 7-7-3.134-7-7 3.134-7 7-7Zm0 34c-6.04 0-11.418-2.688-15.063-6.938C47.21 56.02 52.43 54 60 54c7.57 0 12.79 2.02 15.063 7.062C71.418 65.312 66.04 68 60 68Z" fill="#1D4ED8"/>
  <path d="M30 92c0-11.046 13.431-20 30-20s30 8.954 30 20v2H30v-2Z" fill="#3B82F6" fill-opacity="0.25"/>
</svg>
