<svg width="120" height="120" viewBox="0 0 120 120" fill="none" xmlns="http://www.w3.org/2000/svg">
  <rect width="120" height="120" rx="60" fill="#FFF1F2"/>
  <circle cx="60" cy="44" r="22" fill="#F472B6" fill-opacity="0.15"/>
  <path d="M60 24c-11.046 0-20 8.954-20 20 0 11.045 8.954 20 20 20s20-8.955 20-20c0-11.046-8.954-20-20-20Zm0 8c3.866 0 7 3.134 7 7s-3.134 7-7 7-7-3.134-7-7 3.134-7 7-7Zm0 34c-6.04 0-11.418-2.688-15.063-6.938C47.21 54.02 52.43 52 60 52c7.57 0 12.79 2.02 15.063 7.062C71.418 63.312 66.04 66 60 66Z" fill="#DB2777"/>
  <path d="M40 92c0-11.046 8.954-18 20-18s20 6.954 20 18v2H40v-2Z" fill="#F472B6" fill-opacity="0.3"/>
</svg>
